<svg width="0" height="0" class="hidden">
  <symbol xmlns="http://www.w3.org/2000/svg" viewBox="0 -31 512 512" id="cart">
    <path d="M166 300.004h271.004c6.71 0 12.598-4.438 14.414-10.883l60.004-210.004c1.289-4.527.406-9.39-2.434-13.152A15.034 15.034 0 00497.004 60H131.37l-10.723-48.25A15 15 0 00106 0H15C6.71 0 0 6.71 0 15c0 8.293 6.71 15 15 15h78.96l54.169 243.75C132.19 280.68 121 296.543 121 315.004c0 24.812 20.187 45 45 45h271.004c8.293 0 15-6.707 15-15 0-8.29-6.707-15-15-15H166c-8.262 0-15-6.723-15-15s6.738-15 15-15zm-15 105c0 24.816 20.188 45 45.004 45 24.812 0 45-20.184 45-45 0-24.813-20.188-45-45-45-24.816 0-45.004 20.187-45.004 45zm211.004 0c0 24.816 20.187 45 45 45 24.816 0 45-20.184 45-45 0-24.813-20.184-45-45-45-24.813 0-45 20.187-45 45zm0 0"></path>
  </symbol>
  <symbol fill="none" xmlns="http://www.w3.org/2000/svg" viewBox="0 0 100 100" id="succes">
    <path d="M50 0C22.387 0 0 22.386 0 50s22.387 50 50 50c27.616 0 50-22.386 50-50S77.615 0 50 0zm-9.172 75.684L18.812 53.669l7.338-7.338 14.678 14.677L73.85 27.985l7.338 7.338-40.36 40.361z" fill="#109756"></path>
  </symbol>
  <symbol xmlns="http://www.w3.org/2000/svg" viewBox="-40 0 427 427.001" id="delete">
    <path d="M232.398 154.703c-5.523 0-10 4.477-10 10v189c0 5.52 4.477 10 10 10 5.524 0 10-4.48 10-10v-189c0-5.523-4.476-10-10-10zm-118 0c-5.523 0-10 4.477-10 10v189c0 5.52 4.477 10 10 10 5.524 0 10-4.48 10-10v-189c0-5.523-4.476-10-10-10zm0 0"></path>
    <path d="M28.398 127.121V373.5c0 14.563 5.34 28.238 14.668 38.05A49.246 49.246 0 0078.796 427H268a49.233 49.233 0 0035.73-15.45c9.329-9.812 14.668-23.487 14.668-38.05V127.121c18.543-4.922 30.559-22.836 28.079-41.863-2.485-19.024-18.692-33.254-37.88-33.258h-51.199V39.5a39.289 39.289 0 00-11.539-28.031A39.288 39.288 0 00217.797 0H129a39.288 39.288 0 00-28.063 11.469A39.289 39.289 0 0089.398 39.5V52H38.2C19.012 52.004 2.805 66.234.32 85.258c-2.48 19.027 9.535 36.941 28.078 41.863zM268 407H78.797c-17.098 0-30.399-14.688-30.399-33.5V128h250v245.5c0 18.813-13.3 33.5-30.398 33.5zM109.398 39.5a19.25 19.25 0 015.676-13.895A19.26 19.26 0 01129 20h88.797a19.26 19.26 0 0113.926 5.605 19.244 19.244 0 015.675 13.895V52h-128zM38.2 72h270.399c9.941 0 18 8.059 18 18s-8.059 18-18 18h-270.4c-9.941 0-18-8.059-18-18s8.059-18 18-18zm0 0"></path>
    <path d="M173.398 154.703c-5.523 0-10 4.477-10 10v189c0 5.52 4.477 10 10 10 5.524 0 10-4.48 10-10v-189c0-5.523-4.476-10-10-10zm0 0"></path>
  </symbol>
</svg>